<?xml version="1.0" encoding="UTF-8"?>
<svg version="1.1" xmlns="http://www.w3.org/2000/svg" width="1000" height="1000">
<path d="M0 0 C1.64874367 -0.00855011 1.64874367 -0.00855011 3.33079529 -0.01727295 C5.65110328 -0.0266667 7.97142428 -0.03323436 10.29174805 -0.03710938 C13.74748847 -0.04670532 17.20260451 -0.07773802 20.65820312 -0.109375 C94.4132891 -0.46046121 166.80024925 26.33910399 224.24609375 72.203125 C225.16390625 72.92757812 226.08171875 73.65203125 227.02734375 74.3984375 C243.27040098 87.42088856 259.39950181 102.21198732 272.234375 118.640625 C274.36052248 121.34888276 276.61021322 123.9191162 278.87109375 126.515625 C290.56013905 140.53519647 300.41607239 156.25360997 309.24609375 172.203125 C309.67841309 172.97350098 310.11073242 173.74387695 310.55615234 174.53759766 C334.85123905 218.1045151 350.24070904 269.86553876 350.44921875 319.95703125 C350.45491882 321.0561937 350.4606189 322.15535614 350.4664917 323.28782654 C350.47588545 325.60813453 350.48245311 327.92845553 350.48632812 330.2487793 C350.49592407 333.70451972 350.52695677 337.15963576 350.55859375 340.61523438 C350.65765618 361.24931168 348.9045614 381.64413944 344.49609375 401.828125 C344.24005371 403.02703369 343.98401367 404.22594238 343.72021484 405.46118164 C335.10792417 444.70446756 319.88328696 481.84515026 298.28564453 515.72705078 C292.27035718 525.21887171 286.78935471 535.03388102 281.20605469 544.78320312 C278.04205961 550.3040356 274.86328806 555.81632378 271.68359375 561.328125 C271.06266846 562.40497559 270.44174316 563.48182617 269.80200195 564.59130859 C265.06552344 572.79939301 260.29404357 580.98665636 255.51318359 589.16894531 C249.34690321 599.72932782 243.24113425 610.32439266 237.13720703 620.92089844 C234.00929227 626.34972442 230.87750927 631.77631781 227.74609375 637.203125 C226.49607496 639.36978083 225.24607497 641.5364475 223.99609375 643.703125 C201.49609375 682.703125 178.99609375 721.703125 156.49609375 760.703125 C155.87726318 761.77578613 155.25843262 762.84844727 154.62084961 763.95361328 C153.37173857 766.11869571 152.12255246 768.28373482 150.87329102 770.44873047 C147.73407066 775.88928206 144.59618812 781.33059716 141.4609375 786.7734375 C134.84386483 798.2576132 128.19975398 809.72509394 121.51318359 821.16894531 C115.34690321 831.72932782 109.24113425 842.32439266 103.13720703 852.92089844 C100.00929227 858.34972442 96.87750927 863.77631781 93.74609375 869.203125 C92.49607496 871.36978083 91.24607497 873.5364475 89.99609375 875.703125 C77.49609375 897.36979167 64.99609375 919.03645833 52.49609375 940.703125 C51.87669922 941.7768335 51.25730469 942.85054199 50.61914062 943.95678711 C49.37597075 946.11143124 48.132484 948.26589257 46.88867188 950.42016602 C43.99626228 955.43066621 41.10674148 960.44275135 38.22912598 965.46176147 C37.22061061 967.22041249 36.21104605 968.97845709 35.20117188 970.73632812 C33.94258857 972.92784731 32.68592388 975.12047004 31.43164062 977.31445312 C21.01729489 995.43192386 21.01729489 995.43192386 17.24609375 999.203125 C14.43359375 999.703125 14.43359375 999.703125 11.24609375 999.203125 C6.31922665 994.29348471 3.20600772 988.18838032 -0.16751099 982.15814209 C-1.57217556 979.64757263 -2.99021371 977.14464663 -4.40763855 974.64126587 C-5.13468427 973.35710008 -5.8610919 972.07257282 -6.58686829 970.78768921 C-9.94204291 964.85239492 -13.36924368 958.96043912 -16.81640625 953.078125 C-23.54697127 941.5749775 -30.21046812 930.03388353 -36.86279297 918.48535156 C-39.99070773 913.05652558 -43.12249073 907.62993219 -46.25390625 902.203125 C-47.50392504 900.03646917 -48.75392503 897.8698025 -50.00390625 895.703125 C-50.62265625 894.630625 -51.24140625 893.558125 -51.87890625 892.453125 C-102.50390625 804.703125 -102.50390625 804.703125 -104.37915039 801.45263672 C-105.62826143 799.28755429 -106.87744754 797.12251518 -108.12670898 794.95751953 C-111.26592934 789.51696794 -114.40381188 784.07565284 -117.5390625 778.6328125 C-123.58445784 768.14080406 -129.64500844 757.65830824 -135.75390625 747.203125 C-142.50091819 735.65582984 -149.18729943 724.07410473 -155.86279297 712.48535156 C-158.99070773 707.05652558 -162.12249073 701.62993219 -165.25390625 696.203125 C-166.50392504 694.03646917 -167.75392503 691.8698025 -169.00390625 689.703125 C-169.62265625 688.630625 -170.24140625 687.558125 -170.87890625 686.453125 C-221.50390625 598.703125 -221.50390625 598.703125 -223.37915039 595.45263672 C-224.62826143 593.28755429 -225.87744754 591.12251518 -227.12670898 588.95751953 C-230.26592934 583.51696794 -233.40381188 578.07565284 -236.5390625 572.6328125 C-242.0434993 563.07999247 -247.55410476 553.53151355 -253.12304688 544.01611328 C-260.45841181 531.4811251 -267.6854468 518.89070202 -274.75390625 506.203125 C-275.30997559 505.20748535 -275.86604492 504.2118457 -276.43896484 503.18603516 C-304.79505043 452.24272042 -321.48094955 396.62413386 -321.14501953 338.02587891 C-321.12890581 334.70303345 -321.14501361 331.38140355 -321.1640625 328.05859375 C-321.18517465 307.62850951 -319.32797258 287.36561907 -314.94140625 267.390625 C-314.68351318 266.18543213 -314.42562012 264.98023926 -314.15991211 263.73852539 C-311.82728977 253.07925541 -309.06915578 242.59772665 -305.75390625 232.203125 C-305.37395508 231.00163818 -305.37395508 231.00163818 -304.98632812 229.77587891 C-293.57276125 194.21217711 -275.85194475 160.53963787 -252.75390625 131.203125 C-252.05910156 130.30722656 -251.36429687 129.41132813 -250.6484375 128.48828125 C-248.71673274 126.03083416 -246.74386604 123.61360459 -244.75390625 121.203125 C-243.96757812 120.23117188 -243.18125 119.25921875 -242.37109375 118.2578125 C-235.8995708 110.39469208 -228.86978394 103.10569979 -221.69140625 95.890625 C-220.32701416 94.51245605 -220.32701416 94.51245605 -218.93505859 93.10644531 C-212.84712246 87.04586823 -206.46975204 81.55236272 -199.75390625 76.203125 C-198.58016476 75.22645165 -197.40909692 74.24654478 -196.2421875 73.26171875 C-179.82678762 59.61502749 -161.67865574 48.03821205 -142.75390625 38.203125 C-142.10083496 37.85878418 -141.44776367 37.51444336 -140.77490234 37.15966797 C-97.94158698 14.65257098 -48.63306595 0.20243889 0 0 Z " fill="#CB4154" transform="translate(485.75390625,-0.203125)"/>
<path d="M0 0 C1.64874367 -0.00855011 1.64874367 -0.00855011 3.33079529 -0.01727295 C5.65110328 -0.0266667 7.97142428 -0.03323436 10.29174805 -0.03710938 C13.74748847 -0.04670532 17.20260451 -0.07773802 20.65820312 -0.109375 C94.4132891 -0.46046121 166.80024925 26.33910399 224.24609375 72.203125 C225.16390625 72.92757812 226.08171875 73.65203125 227.02734375 74.3984375 C243.27040098 87.42088856 259.39950181 102.21198732 272.234375 118.640625 C274.36052248 121.34888276 276.61021322 123.9191162 278.87109375 126.515625 C290.56013905 140.53519647 300.41607239 156.25360997 309.24609375 172.203125 C309.67841309 172.97350098 310.11073242 173.74387695 310.55615234 174.53759766 C334.85123905 218.1045151 350.24070904 269.86553876 350.44921875 319.95703125 C350.45491882 321.0561937 350.4606189 322.15535614 350.4664917 323.28782654 C350.47588545 325.60813453 350.48245311 327.92845553 350.48632812 330.2487793 C350.49592407 333.70451972 350.52695677 337.15963576 350.55859375 340.61523438 C350.65765618 361.24931168 348.9045614 381.64413944 344.49609375 401.828125 C344.24005371 403.02703369 343.98401367 404.22594238 343.72021484 405.46118164 C335.10792417 444.70446756 319.88328696 481.84515026 298.28564453 515.72705078 C292.27035718 525.21887171 286.78935471 535.03388102 281.20605469 544.78320312 C278.04205961 550.3040356 274.86328806 555.81632378 271.68359375 561.328125 C271.06266846 562.40497559 270.44174316 563.48182617 269.80200195 564.59130859 C265.06552344 572.79939301 260.29404357 580.98665636 255.51318359 589.16894531 C249.34690321 599.72932782 243.24113425 610.32439266 237.13720703 620.92089844 C234.00929227 626.34972442 230.87750927 631.77631781 227.74609375 637.203125 C226.49607496 639.36978083 225.24607497 641.5364475 223.99609375 643.703125 C201.49609375 682.703125 178.99609375 721.703125 156.49609375 760.703125 C155.87726318 761.77578613 155.25843262 762.84844727 154.62084961 763.95361328 C153.37173857 766.11869571 152.12255246 768.28373482 150.87329102 770.44873047 C147.73407066 775.88928206 144.59618812 781.33059716 141.4609375 786.7734375 C134.84386483 798.2576132 128.19975398 809.72509394 121.51318359 821.16894531 C115.34690321 831.72932782 109.24113425 842.32439266 103.13720703 852.92089844 C100.00929227 858.34972442 96.87750927 863.77631781 93.74609375 869.203125 C92.49607496 871.36978083 91.24607497 873.5364475 89.99609375 875.703125 C77.49609375 897.36979167 64.99609375 919.03645833 52.49609375 940.703125 C51.87669922 941.7768335 51.25730469 942.85054199 50.61914062 943.95678711 C49.37597075 946.11143124 48.132484 948.26589257 46.88867188 950.42016602 C43.99626228 955.43066621 41.10674148 960.44275135 38.22912598 965.46176147 C37.22061061 967.22041249 36.21104605 968.97845709 35.20117188 970.73632812 C33.94258857 972.92784731 32.68592388 975.12047004 31.43164062 977.31445312 C21.01729489 995.43192386 21.01729489 995.43192386 17.24609375 999.203125 C14.43359375 999.703125 14.43359375 999.703125 11.24609375 999.203125 C6.31922665 994.29348471 3.20600772 988.18838032 -0.16751099 982.15814209 C-1.57217556 979.64757263 -2.99021371 977.14464663 -4.40763855 974.64126587 C-5.13468427 973.35710008 -5.8610919 972.07257282 -6.58686829 970.78768921 C-9.94204291 964.85239492 -13.36924368 958.96043912 -16.81640625 953.078125 C-23.54697127 941.5749775 -30.21046812 930.03388353 -36.86279297 918.48535156 C-39.99070773 913.05652558 -43.12249073 907.62993219 -46.25390625 902.203125 C-47.50392504 900.03646917 -48.75392503 897.8698025 -50.00390625 895.703125 C-50.62265625 894.630625 -51.24140625 893.558125 -51.87890625 892.453125 C-102.50390625 804.703125 -102.50390625 804.703125 -104.37915039 801.45263672 C-105.62826143 799.28755429 -106.87744754 797.12251518 -108.12670898 794.95751953 C-111.26592934 789.51696794 -114.40381188 784.07565284 -117.5390625 778.6328125 C-123.58445784 768.14080406 -129.64500844 757.65830824 -135.75390625 747.203125 C-142.50091819 735.65582984 -149.18729943 724.07410473 -155.86279297 712.48535156 C-158.99070773 707.05652558 -162.12249073 701.62993219 -165.25390625 696.203125 C-166.50392504 694.03646917 -167.75392503 691.8698025 -169.00390625 689.703125 C-169.62265625 688.630625 -170.24140625 687.558125 -170.87890625 686.453125 C-221.50390625 598.703125 -221.50390625 598.703125 -223.37915039 595.45263672 C-224.62826143 593.28755429 -225.87744754 591.12251518 -227.12670898 588.95751953 C-230.26592934 583.51696794 -233.40381188 578.07565284 -236.5390625 572.6328125 C-242.0434993 563.07999247 -247.55410476 553.53151355 -253.12304688 544.01611328 C-260.45841181 531.4811251 -267.6854468 518.89070202 -274.75390625 506.203125 C-275.30997559 505.20748535 -275.86604492 504.2118457 -276.43896484 503.18603516 C-304.79505043 452.24272042 -321.48094955 396.62413386 -321.14501953 338.02587891 C-321.12890581 334.70303345 -321.14501361 331.38140355 -321.1640625 328.05859375 C-321.18517465 307.62850951 -319.32797258 287.36561907 -314.94140625 267.390625 C-314.68351318 266.18543213 -314.42562012 264.98023926 -314.15991211 263.73852539 C-311.82728977 253.07925541 -309.06915578 242.59772665 -305.75390625 232.203125 C-305.37395508 231.00163818 -305.37395508 231.00163818 -304.98632812 229.77587891 C-293.57276125 194.21217711 -275.85194475 160.53963787 -252.75390625 131.203125 C-252.05910156 130.30722656 -251.36429687 129.41132813 -250.6484375 128.48828125 C-248.71673274 126.03083416 -246.74386604 123.61360459 -244.75390625 121.203125 C-243.96757812 120.23117188 -243.18125 119.25921875 -242.37109375 118.2578125 C-235.8995708 110.39469208 -228.86978394 103.10569979 -221.69140625 95.890625 C-220.32701416 94.51245605 -220.32701416 94.51245605 -218.93505859 93.10644531 C-212.84712246 87.04586823 -206.46975204 81.55236272 -199.75390625 76.203125 C-198.58016476 75.22645165 -197.40909692 74.24654478 -196.2421875 73.26171875 C-179.82678762 59.61502749 -161.67865574 48.03821205 -142.75390625 38.203125 C-142.10083496 37.85878418 -141.44776367 37.51444336 -140.77490234 37.15966797 C-97.94158698 14.65257098 -48.63306595 0.20243889 0 0 Z M-38.75390625 70.203125 C-40.18766602 70.47600342 -40.18766602 70.47600342 -41.65039062 70.75439453 C-88.01737667 79.68155513 -131.81750216 102.2203183 -166.52734375 134.16015625 C-168.56818551 136.03271808 -170.64854322 137.84142034 -172.75390625 139.640625 C-180.74149619 146.63177515 -187.92752067 154.20565031 -194.46875 162.56298828 C-195.38055338 163.72664617 -196.29778718 164.88605815 -197.21875 166.04248047 C-219.41633073 193.94860362 -237.80022602 226.48400208 -246.75390625 261.203125 C-246.98029785 262.06276855 -247.20668945 262.92241211 -247.43994141 263.80810547 C-248.25080903 266.91446283 -249.03686877 270.02626385 -249.81640625 273.140625 C-250.06229492 274.09839844 -250.30818359 275.05617188 -250.56152344 276.04296875 C-254.82345847 293.61701496 -256.23913455 311.17950149 -256.09008789 329.21704102 C-256.06638773 332.26800965 -256.06957688 335.31810215 -256.07617188 338.36914062 C-256.05304934 355.11170564 -255.32258195 372.03012251 -251.81640625 388.453125 C-251.61241211 389.41508789 -251.40841797 390.37705078 -251.19824219 391.36816406 C-246.30635478 412.9587764 -238.63499148 434.41842585 -228.75390625 454.203125 C-228.41214355 454.90679199 -228.07038086 455.61045898 -227.71826172 456.33544922 C-217.46257286 477.3666558 -203.62894753 496.76513528 -187.80859375 513.96484375 C-185.87288022 516.07352027 -183.99570649 518.22098828 -182.12890625 520.390625 C-176.47480807 526.86359257 -170.32264707 532.66995074 -163.75390625 538.203125 C-163.21652832 538.65961426 -162.67915039 539.11610352 -162.12548828 539.58642578 C-123.61318788 572.16093575 -77.49415087 593.12178757 -27.75390625 601.203125 C-26.72015869 601.38407715 -25.68641113 601.5650293 -24.62133789 601.75146484 C-13.6814825 603.46832853 -2.83779046 603.50760046 8.21411133 603.46386719 C11.41051459 603.45320201 14.60634872 603.46378777 17.80273438 603.4765625 C90.76891412 603.53257705 156.88573957 572.63352178 208.18359375 521.515625 C215.37390988 514.32796262 222.10876089 507.07019919 228.06787109 498.83007812 C229.26009502 497.1837913 230.47922797 495.56033621 231.703125 493.9375 C255.70494043 461.71594955 271.17564646 424.41927139 279.24609375 385.203125 C279.41995605 384.38521484 279.59381836 383.56730469 279.77294922 382.72460938 C286.32091609 351.25075564 285.71096903 315.60111697 279.24609375 284.203125 C279.03710449 283.13288086 278.82811523 282.06263672 278.61279297 280.95996094 C269.13506976 233.03888856 246.14731829 188.49597391 212.7421875 152.88671875 C210.61549553 150.60027527 208.57536814 148.27325416 206.55859375 145.890625 C203.72813234 142.6308993 200.67664432 139.81689063 197.3828125 137.03125 C195.10953754 135.0862908 192.93533726 133.05451845 190.74609375 131.015625 C142.22823588 87.38658945 77.41555789 65.70154186 12.80859375 65.828125 C11.30280762 65.82844223 11.30280762 65.82844223 9.76660156 65.82876587 C-6.72852013 65.86330531 -22.54653684 66.93100015 -38.75390625 70.203125 Z " fill="#CB4154" transform="translate(485.75390625,-0.203125)"/>
<path d="M0 0 C0.94502884 -0.00701431 1.89005768 -0.01402863 2.86372375 -0.02125549 C5.90919784 -0.03872081 8.95447762 -0.04511094 12 -0.046875 C13.03877289 -0.04754974 14.07754578 -0.04822449 15.14779663 -0.04891968 C29.37196688 -0.03421009 43.30839047 0.16500919 57.34228516 2.72021484 C60.17394114 3.23473033 63.01260324 3.68076752 65.85546875 4.12890625 C114.79461432 12.37557951 161.26544049 36.88753064 197.31640625 70.70703125 C199.60284973 72.83372322 201.92987084 74.87385061 204.3125 76.890625 C207.5722257 79.72108641 210.38623437 82.77257443 213.171875 86.06640625 C215.1168342 88.33968121 217.14860655 90.51388149 219.1875 92.703125 C250.60509767 127.64120051 271.17184432 172.29515156 280 218.203125 C280.19609863 219.16331543 280.39219727 220.12350586 280.59423828 221.11279297 C286.2251551 249.33183566 286.31576774 280.75392066 282 309.203125 C281.88172852 309.99025879 281.76345703 310.77739258 281.64160156 311.58837891 C274.39986959 357.16706603 254.47136903 400.13873092 226 436.203125 C225.21109375 437.21761719 224.4221875 438.23210937 223.609375 439.27734375 C210.48137515 455.47560163 194.9714588 471.07765753 178 483.203125 C176.91383399 484.01618845 175.82922366 484.83133384 174.74609375 485.6484375 C127.57207817 520.82531538 71.33506193 537.68999448 12.9375 537.578125 C11.32550217 537.57730927 11.32550217 537.57730927 9.68093872 537.57647705 C-6.87645843 537.5380362 -22.77915098 536.79681841 -39 533.203125 C-40.00595215 532.98881836 -41.0119043 532.77451172 -42.04833984 532.55371094 C-113.15579256 517.10681133 -174.67794904 473.58351658 -214.15234375 412.7421875 C-218.79867762 405.4270851 -223.00834259 397.89255426 -227 390.203125 C-227.3501416 389.53023438 -227.7002832 388.85734375 -228.06103516 388.1640625 C-234.63585134 375.33515287 -239.33403366 361.81796005 -244 348.203125 C-244.63421875 346.39908203 -244.63421875 346.39908203 -245.28125 344.55859375 C-247.54868895 337.72884819 -249.09169825 330.72704901 -250.625 323.703125 C-250.83157227 322.7845874 -251.03814453 321.8660498 -251.25097656 320.91967773 C-254.98790674 303.04469503 -255.41244576 284.77405282 -255.375 266.578125 C-255.37412384 265.52863678 -255.37324768 264.47914856 -255.37234497 263.39785767 C-255.3273666 247.01187808 -254.61409451 231.24755306 -251 215.203125 C-250.75330566 214.09324219 -250.50661133 212.98335937 -250.25244141 211.83984375 C-239.91506445 166.60668047 -219.05802834 123.13551387 -187 89.203125 C-185.84870242 87.87450704 -184.70270122 86.54127782 -183.5625 85.203125 C-176.95414981 77.63105707 -169.72430199 70.62716949 -162 64.203125 C-161.5153125 63.79400879 -161.030625 63.38489258 -160.53125 62.96337891 C-144.39265808 49.39978467 -126.73821555 37.84741538 -108 28.203125 C-107.32614258 27.85588379 -106.65228516 27.50864258 -105.95800781 27.15087891 C-78.10126006 13.00624692 -48.85089134 5.26224986 -18 1.203125 C-16.76950928 1.026604 -15.53901855 0.85008301 -14.27124023 0.66821289 C-9.51524119 0.08075802 -4.78747796 0.02367957 0 0 Z M-64 90.203125 C-64.55316895 90.59153564 -65.10633789 90.97994629 -65.67626953 91.38012695 C-73.32170891 97.32148588 -78.05642679 105.7461878 -83.25 113.765625 C-84.23849454 115.27350078 -85.22807023 116.78066839 -86.21875 118.28710938 C-88.43772213 121.66504207 -90.64672906 125.04919114 -92.84338379 128.44168091 C-93.61396644 129.61522339 -94.39782389 130.78015662 -95.19470215 131.93600464 C-97.34265471 134.80091653 -97.34265471 134.80091653 -98 138.203125 C-98.64764816 138.19202194 -99.29529633 138.18091888 -99.96257019 138.16947937 C-106.76063107 138.05805405 -113.55842865 137.98311561 -120.35717773 137.9284668 C-122.88755853 137.90346782 -125.41786819 137.8694572 -127.94799805 137.82592773 C-147.17302444 137.03248045 -147.17302444 137.03248045 -165 143.203125 C-166.13179687 143.84894531 -167.26359375 144.49476563 -168.4296875 145.16015625 C-180.22494752 154.11023374 -188.12194261 164.32733576 -191 179.203125 C-191.1792858 181.90601167 -191.27940033 184.50287756 -191.26742554 187.20143127 C-191.27195665 187.96539103 -191.27648776 188.72935079 -191.28115618 189.51646084 C-191.29373044 192.05473805 -191.29218434 194.59279877 -191.29052734 197.13110352 C-191.29651714 198.96014173 -191.30332372 200.78917743 -191.31088257 202.61820984 C-191.32850827 207.57314429 -191.33323663 212.52800961 -191.33451414 217.48297238 C-191.33593875 220.58474963 -191.34021431 223.68650948 -191.34550858 226.78828239 C-191.36400065 237.62717676 -191.37218061 248.46602202 -191.37060547 259.30493164 C-191.36940574 269.37846209 -191.39047721 279.4517777 -191.4220928 289.52525383 C-191.44832907 298.19650094 -191.45896962 306.86767824 -191.45769465 315.53896469 C-191.45718698 320.70767427 -191.46276092 325.87619301 -191.48405075 331.04486275 C-191.50355622 335.91315584 -191.50347424 340.78107853 -191.48901749 345.64938545 C-191.48694315 347.42497302 -191.49154706 349.20058452 -191.5037384 350.97613144 C-191.6153393 368.37219772 -189.17662304 383.65470148 -176.875 396.890625 C-164.77992994 408.35658906 -151.59803472 411.67237255 -135.35049438 411.58407593 C-134.00145223 411.58753961 -132.65241291 411.59230891 -131.30337942 411.59825766 C-127.62493729 411.61070024 -123.94673075 411.60462831 -120.26828814 411.59529901 C-116.2899932 411.58848085 -112.31173736 411.59900348 -108.33345032 411.60723877 C-100.55071491 411.62054964 -92.7680665 411.61770998 -84.98532774 411.60900085 C-78.65655622 411.6022133 -72.327809 411.60131221 -65.99903488 411.6045723 C-64.64558587 411.60526184 -64.64558587 411.60526184 -63.26479446 411.60596532 C-61.43150684 411.60692455 -59.59821922 411.60789719 -57.7649316 411.6088831 C-40.59012268 411.6174295 -23.41536185 411.60761515 -6.24056081 411.591482 C8.47767106 411.57808406 23.19583192 411.58040404 37.9140625 411.59423828 C55.02620252 411.61031523 72.1383004 411.6166008 89.25044692 411.60740149 C91.07743239 411.6064459 92.90441787 411.60550278 94.73140335 411.6045723 C95.63019329 411.60410947 96.52898322 411.60364664 97.45500921 411.60316979 C103.77090327 411.6005859 110.08677047 411.604938 116.40266037 411.61201096 C124.10735726 411.62044989 131.81196252 411.6180959 139.51664899 411.60216872 C143.44335387 411.59431738 147.36990634 411.59114037 151.29660988 411.60111618 C154.89911391 411.61012948 158.50132587 411.60502258 162.10380383 411.58918352 C164.00740886 411.58430435 165.91103455 411.59397265 167.81461751 411.60435522 C183.91468936 411.49560199 196.57223423 407.44899197 208.4375 396.328125 C220.9420754 382.7442073 222.60554899 367.06084628 222.51757812 349.47045898 C222.52301069 347.62743581 222.53013966 345.78441699 222.53881836 343.94140625 C222.55691856 338.97653459 222.55003997 334.01199864 222.53730202 329.04712176 C222.52710642 323.82820467 222.53658564 318.60931446 222.54284668 313.39039612 C222.55010345 304.63073619 222.54058659 295.8712116 222.52148438 287.11157227 C222.49971268 277.01172655 222.5067772 266.91220386 222.52879 256.81236595 C222.54699217 248.10958911 222.54947903 239.40690901 222.53903532 230.70411927 C222.53282769 225.51993621 222.53188922 220.33590457 222.54518127 215.15173149 C222.5568098 210.27676534 222.54858721 205.40221228 222.52560425 200.52729034 C222.52035463 198.74764501 222.52176595 196.96796439 222.53065491 195.18833351 C222.6039653 179.00873635 220.09943523 165.02133914 208.67578125 152.6953125 C203.34341961 147.62245355 197.84822483 143.90300069 191 141.203125 C190.11128708 140.83164085 190.11128708 140.83164085 189.20462036 140.45265198 C182.60268719 137.93728861 176.53383357 137.81267085 169.52734375 137.91015625 C168.3636879 137.91440109 167.20003204 137.91864594 166.00111389 137.92301941 C162.31299942 137.93970715 158.62544714 137.97734181 154.9375 138.015625 C152.42513814 138.0306846 149.91276765 138.04437076 147.40039062 138.05664062 C141.2667378 138.08957823 135.13340908 138.13967842 129 138.203125 C128.70993073 137.44335861 128.41986145 136.68359222 128.1210022 135.90080261 C126.70627488 132.49627921 124.75631344 129.55137449 122.7109375 126.50390625 C122.28881989 125.86881638 121.86670227 125.2337265 121.43179321 124.57939148 C120.53801538 123.23736744 119.6419179 121.89688573 118.74365234 120.55786133 C117.39382866 118.54372021 116.05384653 116.52329908 114.71484375 114.50195312 C103.91391784 98.27849501 93.542852 84.98305583 73.59903717 80.63857651 C69.04380054 79.8753767 64.51208255 79.90839731 59.90332031 79.91259766 C58.83048798 79.90588043 57.75765564 79.89916321 56.65231323 79.89224243 C53.12753589 79.87334164 49.60294978 79.86934217 46.078125 79.8671875 C43.61106286 79.86075395 41.14400148 79.85402518 38.67694092 79.84701538 C33.51247388 79.83506229 28.34807364 79.83133252 23.18359375 79.83251953 C16.59233728 79.83272257 10.00151268 79.80542638 3.41035843 79.77097511 C-1.684 79.74864883 -6.77825545 79.74468376 -11.87265778 79.74573898 C-14.30133807 79.74339143 -16.73002156 79.73461606 -19.15865326 79.71907425 C-35.79845157 79.62255896 -50.07928869 79.91955132 -64 90.203125 Z " fill="#FEFEFE" transform="translate(485,65.796875)"/>
<path d="M0 0 C0.71687988 0.18304688 1.43375977 0.36609375 2.17236328 0.5546875 C33.0613494 8.61430619 58.50397766 26.44316561 74.87646484 54.22387695 C89.38431612 79.87784546 92.95905469 109.73642546 85.41015625 138.14453125 C80.56427731 155.17227489 72.63887455 169.71432485 61 183 C59.98486328 184.28777344 59.98486328 184.28777344 58.94921875 185.6015625 C48.50262459 198.45568839 32.96677878 206.65971816 18 213 C17.03449219 213.42152344 16.06898438 213.84304688 15.07421875 214.27734375 C2.86358106 219.18753948 -9.77944 220.26214191 -22.8125 220.3125 C-23.83746582 220.31797852 -24.86243164 220.32345703 -25.91845703 220.32910156 C-54.19435619 220.06556273 -79.89624801 208.5482079 -100 189 C-100.75667969 188.30519531 -101.51335937 187.61039063 -102.29296875 186.89453125 C-116.71412114 173.2676592 -125.69540109 154.90768022 -131 136 C-131.3196875 134.87980469 -131.639375 133.75960937 -131.96875 132.60546875 C-138.95722289 103.77801809 -132.18793176 74.77176709 -117.34375 49.71875 C-101.6996897 24.31651347 -75.57668779 7.19190584 -47 0 C-46.08992188 -0.22945312 -45.17984375 -0.45890625 -44.2421875 -0.6953125 C-30.41761555 -3.55695859 -13.67625923 -3.55138817 0 0 Z " fill="#FEFDFD" transform="translate(523,216)"/>
<path d="M0 0 C0.94617188 -0.00773437 1.89234375 -0.01546875 2.8671875 -0.0234375 C19.4339493 0.02245381 33.58984312 7.22369734 45.625 18.3125 C57.97335168 31.18538343 62.68945217 47.07482326 62.61157227 64.58081055 C62.08989909 80.17871087 55.12868938 93.51328876 45 105.25 C38.29236848 110.99377831 31.18021016 115.89401634 23 119.25 C21.60974609 119.8378125 21.60974609 119.8378125 20.19140625 120.4375 C5.33178356 125.88918323 -10.72148557 124.74918588 -25 118.25 C-41.29313428 110.23953303 -52.24445282 98.12841044 -59 81.25 C-63.09670394 67.69975007 -63.25603453 50.03662857 -57 37.25 C-56.39865234 35.89648438 -56.39865234 35.89648438 -55.78515625 34.515625 C-48.34891904 19.25517298 -34.80317732 8.06191232 -19 2.25 C-12.5684665 0.27371508 -6.7063142 -0.05482001 0 0 Z " fill="#CB4154" transform="translate(500,263.75)"/>
<path d="M0 0 C1.21107422 -0.03287109 2.42214844 -0.06574219 3.66992188 -0.09960938 C11.05435608 -0.14406957 15.27778991 0.24937408 20.6875 5.4375 C23.63687259 9.81398836 24.24801797 13.20599896 23.6875 18.4375 C22.05201232 22.60799359 20.11480622 25.54571038 16.6875 28.4375 C11.29657663 30.23447446 5.51667361 29.70749618 -0.125 29.75 C-1.39666016 29.77900391 -2.66832031 29.80800781 -3.97851562 29.83789062 C-15.65308522 29.91739267 -15.65308522 29.91739267 -20.3125 25.4375 C-23.37252387 21.15346658 -23.94845881 17.06332599 -23.80078125 11.91015625 C-22.97459951 7.7263719 -20.57331783 5.07008687 -17.3125 2.4375 C-12.06256814 -0.79077425 -5.9658061 0.02830377 0 0 Z " fill="#FEFBFC" transform="translate(641.3125,243.5625)"/>
</svg>
